# xmcd
#
# Track frame offsets:
#	150
#	9381
#	17380
#	29265
#	38429
#	46816
#	55622
#	68376
#	79317
#	88575
#	104731
#	110388
#	112248
#	122002
#	140757
#	153648
#	165160
#
# Disc length: 2747 seconds
#
# Revision: 0
# Processed by: cddbd v1.5.2PL0 Copyright (c) Steve Scherf et al.
# Submitted via: EZCDAudioConverter 3.1.2.1
#
DISCID=cc0ab911
DTITLE=Marszałek Pizdudski - One Man Band
DYEAR=2014
DGENRE=Blues
TTITLE0=Marszałek Pizdudski - A Już Tak Ładnie Żarło
TTITLE1=Unknown artist - I Go Solo
TTITLE2=Unknown artist - Dziś Nie Kupisz Tego Już
TTITLE3=Unknown artist - Nigdy Na Sprzedaż
TTITLE4=Unknown artist - Powiedz Zaraz Mamie
TTITLE5=Unknown artist - Idź W Chuj
TTITLE6=Unknown artist - Jaka Twa Rada, Klecho?
TTITLE7=Unknown artist - Rok Minął
TTITLE8=Unknown artist - Ile Tak?
TTITLE9=Unknown artist - Prawdziwa Historia Haliny K.
TTITLE10=Unknown artist - Co Ty Chcesz Mi Jeszcze Odgryźć?
TTITLE11=Unknown artist - Puśćcie Coś Fajnego
TTITLE12=Unknown artist - 1234
TTITLE13=Unknown artist - Gdzie Nie Pójdę
TTITLE14=Unknown artist - Chuj Ci Do Tego
TTITLE15=Unknown artist - Pij Pij
TTITLE16=Unknown artist - Nie Bądź Taki Sędzia
EXTD=
EXTT0=
EXTT1=
EXTT2=
EXTT3=
EXTT4=
EXTT5=
EXTT6=
EXTT7=
EXTT8=
EXTT9=
EXTT10=
EXTT11=
EXTT12=
EXTT13=
EXTT14=
EXTT15=
EXTT16=
PLAYORDER=
